# xmcd
#
# Track frame offsets: 
#        183
#        11368
#        25563
#        38530
#        51390
#        64998
#        74245
#        88493
#        102688
#        113148
#        123503
#        134513
#        145600
#        155993
#        168063
#        182833
#        195408
#        206183
#        215883
#
# Disc length: 2996 seconds
#
# Revision: 3
# Processed by: cddbd v1.5.1PL0 Copyright (c) Steve Scherf et al.
# Submitted via: ExactAudioCopy v0.95b3
#
DISCID=280bb213
DTITLE=J.B. Lenoir - Mama Watch Your Daughter - Charly Blues Masterwor
DTITLE=ks - Vol. 47
DYEAR=1993
DGENRE=Blues
TTITLE0=Mama Talk To Your Daughter
TTITLE1=Man Watch Your Woman
TTITLE2=Eisenhower Blues
TTITLE3=If You Love Me
TTITLE4=Sitting Down Thinking
TTITLE5=Mama, Your Daughter Is Going To Miss Me
TTITLE6=What Have I Done
TTITLE7=We Can't Go On This Way
TTITLE8=Give Me One More Shot
TTITLE9=Everybody Wants To Know
TTITLE10=J.B.'s Rock
TTITLE11=Low Down Dirty Shame
TTITLE12=Don't Touch My Head
TTITLE13=When I Am Drinking
TTITLE14=I've Been Down For So Long
TTITLE15=Daddy Talk To Your Son
TTITLE16=I Don't Know
TTITLE17=Good Looking Woman
TTITLE18=Voodoo Boogie
EXTD=
EXTT0=
EXTT1=
EXTT2=
EXTT3=
EXTT4=
EXTT5=
EXTT6=
EXTT7=
EXTT8=
EXTT9=
EXTT10=
EXTT11=
EXTT12=
EXTT13=
EXTT14=
EXTT15=
EXTT16=
EXTT17=
EXTT18=
PLAYORDER=
